<svg xmlns="http://www.w3.org/2000/svg" viewBox="0 0 34.35 39.34"><defs><style>.cls-1{fill:#f2e0d5;}</style></defs><title>icon-CraftNow</title><g id="Layer_2" data-name="Layer 2"><g id="Layer_4" data-name="Layer 4"><g id="surface1"><path class="cls-1" d="M13.88,0a1.57,1.57,0,0,0-1.54,1.6V6.32a1.56,1.56,0,0,0,.78,1.38,1.57,1.57,0,0,0,2.36-1.38V1.6A1.57,1.57,0,0,0,13.88,0Zm6.3,1.57a1.57,1.57,0,0,0-1.55,1.6V6.32a1.57,1.57,0,1,0,3.14,0V3.17A1.58,1.58,0,0,0,21.31,2,1.6,1.6,0,0,0,20.18,1.57ZM7.59,3.15A1.58,1.58,0,0,0,6,4.74V6.32A1.58,1.58,0,0,0,8.41,7.7a1.58,1.58,0,0,0,.78-1.38V4.74a1.57,1.57,0,0,0-1.6-1.59ZM1.57,11A1.57,1.57,0,0,0,0,12.83L3.39,35.9a4,4,0,0,0,4.05,3.44H20.58a4.1,4.1,0,0,0,4-3.44l.62-4.42h3.51a4.73,4.73,0,0,0,4.66-4.05l.9-6.3a4.75,4.75,0,0,0-4.67-5.38H27.41l.41-2.93A1.58,1.58,0,0,0,26.26,11ZM27,18.9h2.66a1.53,1.53,0,0,1,1.55,1.79L30.3,27a1.56,1.56,0,0,1-1.55,1.36H25.67Z"/></g></g></g></svg>