<svg xmlns="http://www.w3.org/2000/svg" viewBox="0 0 124.44 119.32"><defs><style>.cls-1,.cls-10,.cls-11,.cls-14,.cls-5,.cls-6,.cls-7{fill:#8c5656;}.cls-2{fill:#f2aa80;stroke:#f2e0d5;}.cls-2,.cls-4{stroke-miterlimit:10;}.cls-3,.cls-4{fill:#f2e0d5;}.cls-4{stroke:#8c5656;stroke-width:2px;}.cls-5{font-size:14.78px;}.cls-10,.cls-11,.cls-14,.cls-5,.cls-6,.cls-7{font-family:Heubeul:-Pratama-Yudha., Heubeul;}.cls-6{font-size:4.79px;letter-spacing:0.05em;}.cls-7{font-size:5.13px;letter-spacing:0em;}.cls-8{letter-spacing:-0.03em;}.cls-9{letter-spacing:-0.01em;}.cls-10{font-size:3.36px;letter-spacing:0.2em;}.cls-11{font-size:2.93px;letter-spacing:0.3em;}.cls-12{letter-spacing:0.29em;}.cls-13{letter-spacing:0.28em;}.cls-14{font-size:16.28px;}.cls-15{letter-spacing:-0.05em;}</style></defs><title>icon-Logo</title><g id="Layer_2" data-name="Layer 2"><g id="Layer_4" data-name="Layer 4"><path class="cls-1" d="M112,59.52A49.64,49.64,0,1,1,95.65,22.66,49.54,49.54,0,0,1,112,59.52Z"/><path class="cls-1" d="M26.34,22.66H12.22a9.82,9.82,0,0,0-2.13,4.86L8.28,40.33a9.46,9.46,0,0,1-1.06,3.26L1.15,55a10,10,0,0,0,0,9.28L7.22,75.73A9.46,9.46,0,0,1,8.28,79L10.09,91.8a10.52,10.52,0,0,0,.45,1.86H23.77a51.53,51.53,0,0,1,2.57-71Zm0,0H12.22a9.82,9.82,0,0,0-2.13,4.86L8.28,40.33a9.46,9.46,0,0,1-1.06,3.26L1.15,55a10,10,0,0,0,0,9.28L7.22,75.73A9.46,9.46,0,0,1,8.28,79L10.09,91.8a10.52,10.52,0,0,0,.45,1.86H23.77a51.53,51.53,0,0,1,2.57-71Zm97,32.36-6.08-11.43a10.38,10.38,0,0,1-1-3.26l-1.81-12.81A10,10,0,0,0,108.9,20L97.27,14.33a9.74,9.74,0,0,1-2.76-2L91.94,9.66,85.51,3A9.9,9.9,0,0,0,76.69.15L63.94,2.39a9.82,9.82,0,0,1-3.42,0L47.77.15A9.86,9.86,0,0,0,39,3L32.52,9.66,30,12.32a9.78,9.78,0,0,1-2.77,2L15.54,20a10,10,0,0,0-3.32,2.65,9.82,9.82,0,0,0-2.13,4.86L8.28,40.33a9.46,9.46,0,0,1-1.06,3.26L1.15,55a10,10,0,0,0,0,9.28L7.22,75.73A9.46,9.46,0,0,1,8.28,79L10.09,91.8a10.52,10.52,0,0,0,.45,1.86,10,10,0,0,0,5,5.65L27.18,105a9.24,9.24,0,0,1,2.4,1.67A3.92,3.92,0,0,1,30,107l9,9.31a9.86,9.86,0,0,0,8.82,2.86l12.75-2.24a9.82,9.82,0,0,1,3.42,0l12.75,2.24a9.9,9.9,0,0,0,8.82-2.86l9-9.31a3.82,3.82,0,0,1,.36-.34,9.48,9.48,0,0,1,2.4-1.67l11.63-5.68a9.86,9.86,0,0,0,5-5.65,8.42,8.42,0,0,0,.45-1.86L116.16,79a10.38,10.38,0,0,1,1-3.26l6.08-11.43A9.9,9.9,0,0,0,123.29,55ZM101,93.66A51.54,51.54,0,1,1,113.9,59.51,51.6,51.6,0,0,1,101,93.66Zm-74.62-71H12.22a9.82,9.82,0,0,0-2.13,4.86L8.28,40.33a9.46,9.46,0,0,1-1.06,3.26L1.15,55a10,10,0,0,0,0,9.28L7.22,75.73A9.46,9.46,0,0,1,8.28,79L10.09,91.8a10.52,10.52,0,0,0,.45,1.86H23.77a51.53,51.53,0,0,1,2.57-71Zm0,0H12.22a9.82,9.82,0,0,0-2.13,4.86L8.28,40.33a9.46,9.46,0,0,1-1.06,3.26L1.15,55a10,10,0,0,0,0,9.28L7.22,75.73A9.46,9.46,0,0,1,8.28,79L10.09,91.8a10.52,10.52,0,0,0,.45,1.86H23.77a51.53,51.53,0,0,1,2.57-71Z"/><circle class="cls-2" cx="62.37" cy="59.52" r="47.12"/><circle class="cls-3" cx="62.37" cy="59.52" r="42.33"/><circle class="cls-4" cx="62.37" cy="59.52" r="39.79"/><text class="cls-5" transform="translate(45.59 93.6) rotate(22)">-</text><text class="cls-5" transform="translate(51.75 95.97) rotate(12.49)">s</text><text class="cls-5" transform="matrix(1, 0.05, -0.05, 1, 57.73, 97.21)">h</text><text class="cls-5" transform="translate(64.13 97.46) rotate(-6.61)">o</text><text class="cls-5" transform="translate(70.41 96.63) rotate(-16.1)">p</text><text class="cls-5" transform="matrix(0.9, -0.43, 0.43, 0.9, 76.32, 94.85)">-</text><polygon class="cls-1" points="51.36 27.44 52.62 29.99 55.44 30.4 53.4 32.39 53.88 35.19 51.36 33.87 48.84 35.19 49.32 32.39 47.29 30.4 50.1 29.99 51.36 27.44"/><polygon class="cls-1" points="62.37 21.86 64.15 25.49 68.15 26.07 65.26 28.89 65.94 32.87 62.37 30.99 58.79 32.87 59.47 28.89 56.58 26.07 60.58 25.49 62.37 21.86"/><polygon class="cls-1" points="73.37 27.44 74.63 29.99 77.45 30.4 75.41 32.39 75.89 35.19 73.37 33.87 70.85 35.19 71.33 32.39 69.3 30.4 72.11 29.99 73.37 27.44"/><path class="cls-1" d="M33.65,67.07h0Zm4.5-5.55h0Zm-8.8.15h0Zm0,0h0Zm0,0h0Zm0,0h0Zm0,0h0Zm12.29-.3a.43.43,0,0,0-.17-.06.66.66,0,0,0-.2,0h-4a.1.1,0,0,1-.11,0,.24.24,0,0,0-.12,0s-.06,0-.08,0h-.09l-.19,0h-.2l-6.19.09h-.77l-.11,0h-.07l-.09,0a.1.1,0,0,0-.05.06.25.25,0,0,0,0,.07.15.15,0,0,0,0,.07s0,.05,0,.05,0,0,.05,0l0,0h0l.09,0,.08,0h.26l.06,0h.37c.1,0,6.11-.09,6.2-.09h.75l.12,0a.47.47,0,0,0,.12,0l.12,0a1,1,0,0,1,.17,0h.87a.87.87,0,0,1,.32,0,.84.84,0,0,0,.32,0h2v0h.3a.24.24,0,0,0,.13,0,.23.23,0,0,0,.07-.13C41.69,61.44,41.68,61.4,41.64,61.37Zm-12.25.31s0,0,0,0h0S29.39,61.67,29.39,61.68Zm.12,0h0s0,0,0,0h.05v0Zm.07.07h0S29.59,61.71,29.58,61.71Zm.29-.1h0s0,0,0,0h0Zm0,0-.06,0s0,0,0,0,0,0,0,0h0s0,0,0,0,0,0,0,0h.07Zm.14.1h0v0h0Zm2.08-.15h0a0,0,0,0,1,0,0Zm-1.64,0s0,0,0,0h0v0Zm0,.11h0v0h0Zm.59,0h0a0,0,0,0,1,0,0h0Zm.13-.07h0s0,0,0,0v0h0Zm.11-.09h0s0,0,0,0h0Zm.09,0h0v0h0Zm.72,0h0v0h0Zm.08,0h0v0h0Zm1.1,0h0Zm.09-.08h0v0h0Zm1,0h0Zm.11.07h0v0h0Zm.13,0h0v0h0s0,0,0,0h0Zm.17,0h0v0h0s0,0,0,0Zm.83,0s0,0,0,0v0h0v0s0,0,0,0h0Zm.14,0s0,0,0,0h0s0,0,0,0h0Zm1.08.07h0v0h0s0,0,0,0h.06a0,0,0,0,1,0,0Zm.34-.09h0v0h-.05l0,0h0A0,0,0,0,0,37.21,61.49Zm.16,0h0s0,0,0,0h0v0h0Zm.13,0h0v0h0Zm.07.06h0s0,0,0,0Zm.39,0h0s0,0,0,0v0h0v.05Zm.06,0h0s0,0,0,0h0Zm.14,0h0Zm0-.09h0v0h0v0h0Zm.06.07,0,0h0s0,0,0,0,0,0,0,0h0v0h0s0,0,0,0h0s0,0,0,0Zm.11,0h0v0h0v0l0,0s0,0,0,0S38.39,61.47,38.35,61.48Zm.52,0h0s0,0,0,0Zm0,0s0,0,0,0h0a0,0,0,0,1,0,0h0S38.93,61.47,38.91,61.48Zm.15.12h0a0,0,0,0,1,0,0v0h0v0h0Zm.9-.11v0s0,0,0,0h0Zm.17,0s0,0,0,0h0s0,0,0,0h0a0,0,0,0,1,0,0v0h0Zm1.49.07s0,0,0,0h0s0,0,0,0h0Zm-12.27.12h0Zm0,0h0Zm0,0h0Zm0,0h0Zm0,0h0ZM41,66.92l-.05,0,0,0s-.06,0-.07,0h-.18a.17.17,0,0,1-.1,0h-.09l-.05,0H39.12a.28.28,0,0,1-.13,0l-.12,0a.11.11,0,0,0-.11,0l-.12,0H38l-.36,0a1.16,1.16,0,0,1-.32,0,.85.85,0,0,0-.32,0,0,0,0,0,0,0,0s0,0,0,0h-1l-6.4.1H28.7a.32.32,0,0,0-.13,0,.17.17,0,0,0-.07.14.13.13,0,0,0,0,.13.49.49,0,0,0,.17.06h1.08l6.48-.1h2.38l.13,0a.16.16,0,0,1,.12,0,.14.14,0,0,0,.11,0,.26.26,0,0,1,.17,0,.62.62,0,0,0,.19,0h.2l.27,0h.79l.09,0,.1,0h.07a.09.09,0,0,0,.07-.06A.1.1,0,0,1,41,67s0,0,0-.06v0S41,66.93,41,66.92Zm-12.36.17h0v0h0s0,0,0,0h.06Zm.58-.06h0s0,0,0,0h0l0,0s0,0,0,0h0A0,0,0,0,0,29.21,67Zm.16,0h0s0,0,0,0,0,0,0,0h0v0h0Zm.47.17h-.06s0,0,0,0,0,0,0,0h0Zm.15,0h0s0,0,0,0h0v0h0s0,0,0,0h0Zm.75,0s0,0,0,0h0a0,0,0,0,1,0,0h0a0,0,0,0,1,0,0h0a0,0,0,0,1,0,0s0,0,0,0,0,0,0,0Zm.16,0s0,0,0,0a0,0,0,0,0,0,0h0s0,0,0,0l0,0h0Zm.73,0h-.05s0,0,0,0h.05A0,0,0,0,0,31.63,67.09Zm.14,0s0,0,0,0h0s0,0,0,0,0,0,0,0v0h0Zm.6.06h0v0h0s0,0,0,0Zm.34-.09h0a0,0,0,0,1,0,0h0s0,0,0,0h0s0,0,0,0Zm.16,0h0s0,0,0,0h0s0,0,0,0h0ZM33,67h0v0h0Zm.07.06s0,0,0,0h0Zm.39,0h0l0,0h0a0,0,0,0,1,0,0h0s0,0,0,0h.05v0h0Zm.07,0h0v0h0s0,0,0,0,0,0,0,0h0s0,0,0,0h.05Zm.14,0h0s0,0,0,0h0Zm0-.09h0v0h0v0h0Zm0,.07v0a0,0,0,0,1,0,0h0v0h0v0h0s0,0,0,0h0Zm.13,0,0,0h0v0s0,0,0,0v0l0,0a.05.05,0,0,1,0,0Zm.54,0h0v0s0,0,0,0h0s0,0,0,0Zm.17.11h0v0h0s0,0,0,0ZM35.62,67h0v0h0s0,0,0,0h0a0,0,0,0,1,0,0h0Zm.15,0h0s0,0,0,0h0s0,0,0,0h0s0,0,0,0l0,0h.05Zm1.31-.06h0Zm.13.1v0h0s0,0,0,0a.05.05,0,0,0,0,0h0Zm0,0h0S37.22,67,37.22,67Zm.72,0h0v0h0Zm-.19.08s0,0,0,0v0s0,0,0,0,0,0,0,0l0,0h0s0,0,0,0,0,0,0,0Zm.14,0h0s0,0,0,0v0s0,0,0,0a0,0,0,0,1,0,0h0s0,0,0,0h0s0,0,0,0v0h0A0,0,0,0,0,37.89,67.08Zm.07.08H37.9v0s0,0,0,0,0,0,0,0h0Zm.17-.16s0,0,0,0h0v0h.05Zm.06.07h0v0h0a0,0,0,0,1,0,0h0s0,0,0,0Zm.34,0h0Zm.1.06s0,0,0,0h0v0h0v0h0Zm.14-.06h-.05a0,0,0,0,0,0,0h.07A0,0,0,0,1,38.77,67.07Zm.16,0h0Zm.36-.08h-.08v0h.08Zm.91,0h0Zm.12,0v0h0v0h0Zm.12,0h0a0,0,0,0,1,0,0l0,0h-.08l0,0s0,0,0,0,0,0,0,0h0a0,0,0,0,1,0,0,0,0,0,0,0,0,0h0Zm.18-.12h0v0h0s0,0,0,0h0Zm.08.07h0s0,0,0,0,0,0,0,0,0,0,0,0v0h0s0,0,0,0h0Zm.13,0h0a0,0,0,0,1,0,0h0Z"/><path class="cls-1" d="M84.29,59.36h0Zm7.22-.14h0Zm-5.64.07v0h0Zm4.64-5.56h0Zm-2.93,0h0Zm4.18-.06v0h0Zm-5.19,0h0v0ZM81,53.82h0Zm13-.27a.26.26,0,0,0-.15-.06H93.6l-.16,0h-.3l-6.67.06H83a.1.1,0,0,1-.11,0,.14.14,0,0,0-.11,0l-.09,0h-.09l-.19,0H81.14l-.11,0H81l-.08,0a.07.07,0,0,0-.06.06l0,.07a.15.15,0,0,0,0,.07s0,0,0,0l0,0,0,0h0L81,54,81,54h.29l.06,0h1.4l.12,0A.47.47,0,0,0,83,54l.12,0h1a.87.87,0,0,1,.32,0,1.1,1.1,0,0,0,.32,0h1.9l6.59-.08h.21v0h.14a.47.47,0,0,0,.17,0,.34.34,0,0,0,.14,0,.17.17,0,0,0,.06-.14C94,53.62,94,53.58,94,53.55Zm-13,.28s0,0,0,0h0Zm.13,0h0s0,0,0,0h.06v0Zm.09.08h0a0,0,0,0,0,0,0h0Zm.28-.11h0Zm0,0-.06,0h0s0,0,0,0,0,0,0,0h0l0,0,0,0h.07A0,0,0,0,1,81.46,53.71Zm.13.1h0v0h0Zm1,0h0v0h0s0,0,0,0h0s0,0,0,0Zm.33-.08h0v0h.06A0,0,0,0,1,82.89,53.74Zm.15,0h0s0,0,0,0h0v0h0Zm.14,0h0v0h0Zm.07.06h0Zm.39,0h0Zm0,0h0s0,0,0,0v0h0v0Zm.08,0h0v0h0s0,0,0,0h0Zm.13,0h0Zm0-.09s0,0,0,0h0v0h.06s0,0,0,0Zm.07.06v0h0s0,0,0,0h0v0h0s0,0,0,0h0v0l0,0Zm.12,0h0v0h0v0h0s0,0,0,0,0,0,0,0S84.07,53.72,84,53.73Zm.54,0h0a0,0,0,0,1,0,0h0s0,0,0,0A0,0,0,0,1,84.57,53.75Zm.15.11h0a0,0,0,0,1,0,0v0h0v0h0Zm1.59-.09v0h0v0h0Zm.15,0h0s0,0,0,0h0v0h0Zm.13,0h0v0h0Zm.07.06s0,0,0,0h0s0,0,0,0Zm.84-.07h0s0,0,0,0h0Zm.06,0h0Zm.16,0v0s0,0,0,0h0v0h0l0,0h0S87.74,53.74,87.72,53.74Zm.17,0h0s0,0,0,0h.05Zm1.54,0h0Zm.1,0h0Zm.12-.09h0v0h0Zm.1,0h0Zm.06,0h0v0h0Zm.6,0h0s0,0,0,0h0Zm.06.05h0Zm.18,0v0H90.6l0,0h.06S90.65,53.7,90.65,53.7Zm.1,0h0Zm.06,0h0v0h0Zm.85-.08h0Zm.09.08h0v0h0v0Zm.15,0v0h-.05l0,0h0Zm.1,0h0Zm.06,0h0v0h0Zm1.88,0h0v0h0v0h0v0h0Zm-.62,5.34,0,0-.06,0-.06,0h-.37l-.06,0h-.45l-6.57.06h-.91a.29.29,0,0,1-.13,0l-.12,0a.09.09,0,0,0-.1,0l-.12,0h-.68l-.36,0a1.16,1.16,0,0,1-.32,0,.87.87,0,0,0-.32,0h0s0,0,0,0H80.28a.24.24,0,0,0-.13,0,.2.2,0,0,0-.07.13.14.14,0,0,0,.06.14.39.39,0,0,0,.15.06h3a3.38,3.38,0,0,1,.45,0h.48s0,0,0,0h.13a.32.32,0,0,0,.13,0,.16.16,0,0,1,.12,0,.14.14,0,0,0,.11,0l.08,0h.08a.65.65,0,0,0,.19,0h.77l6.43-.06h.83l.08,0h.06a.08.08,0,0,0,.07-.06.22.22,0,0,1,0-.08v-.07S93.33,59.11,93.32,59.1Zm-13.11.14h0a0,0,0,0,1,0,0h.06Zm1.24,0h0Zm.07.09h0v0h0Zm.14,0h0v0h0Zm.17,0h0v0h0s0,0,0,0h0l0,0Zm.93-.1h-.05v0h0Zm.13.12h0s0,0,0,0h.06Zm.73-.05h0s0,0,0,0h0Zm-.19.1h0v0h0a.05.05,0,0,1,0,0h0v0l0,0h0Zm.14,0h0s0,0,0,0h0v0h0s0,0,0,0h0s0,0,0,0v0h0A0,0,0,0,0,83.57,59.33Zm.07.08h-.06v0l0,0h0Zm.14-.15h0v0h0Zm.09.07h0v0h0s0,0,0,0Zm.34,0h0s0,0,0,0Zm.1.06h0v0h0A0,0,0,0,0,84.31,59.38Zm.12-.06h0s0,0,0,0h0Zm.16,0v0h0A0,0,0,0,1,84.59,59.31Zm.38-.08h-.06v0H85Zm.8,0h0Zm.08.08h0v0h0v0Zm.16,0v0H86v0h0v0h0A0,0,0,0,1,86,59.27Zm.09,0h0Zm.06,0h0l0,0Zm.69,0h0Zm.1-.05h0v0h0Zm.77.05v0h0v0h0Zm.17,0h0s0,0,0,0h0v0h0Zm.63,0h0Zm.07.07h0Zm.94,0v0h0a0,0,0,0,1,0,0v0h0Zm.18,0h0l0,0h0Zm.12-.06h0Zm.07.07h0v0Zm.54,0v0h0Zm.08-.06h0Zm.73,0h0l0,0v0h0s0,0,0,0h0Zm.15,0h-.06s0,0,0,0v0h0Zm.13,0h0Zm0,.08h0Zm.64-.07h0Zm.11-.07h0v0h0v0h0Zm.19,0h0Zm.13,0v0s0,0,0,0h0s0,0,0,0h0Zm.1,0a0,0,0,0,1,0,0l0,0h-.08v0a0,0,0,0,1,0,0h.1Zm.19-.13h0l0,0h0l0,0h0Zm.08.07h0v0h0v0H93S93,59.2,93,59.2Zm.13,0Z"/><text class="cls-6" transform="matrix(1, 0, -0.12, 0.92, 28.78, 65.62)">premium</text><text class="cls-7" transform="matrix(1, 0, -0.12, 0.92, 80.28, 58.04)">roas<tspan class="cls-8" x="6.99" y="0">t</tspan><tspan class="cls-9" x="8.73" y="0">ers</tspan></text><text class="cls-10" transform="matrix(1.02, -0.04, -0.17, 0.91, 53.55, 74.91)">est.1986</text><text class="cls-11" transform="matrix(1.02, -0.01, -0.2, 0.91, 49.15, 44.39)">original <tspan class="cls-12" x="16.03" y="0">t</tspan><tspan x="17.95" y="0">as</tspan><tspan class="cls-13" x="21.72" y="0">t</tspan><tspan x="23.6" y="0">e</tspan></text><text class="cls-14" transform="matrix(1.02, 0, -0.16, 0.99, 33.03, 56.52)">Cra<tspan class="cls-15" x="24.96" y="0">f</tspan><tspan x="29.82" y="0">t</tspan></text><text class="cls-14" transform="matrix(1.02, 0, -0.16, 0.99, 41.8, 71.29)">Espresso</text></g></g></svg>