<svg xmlns="http://www.w3.org/2000/svg" viewBox="0 0 52.69 68.18"><defs><style>.cls-1{fill:#8c5656;}</style></defs><title>icon-cup</title><g id="Layer_2" data-name="Layer 2"><g id="Layer_6" data-name="Layer 6"><g id="surface1"><path class="cls-1" d="M11.51,0A4.67,4.67,0,0,0,7,3.5L6.71,4.65H46l-.29-1.13A4.63,4.63,0,0,0,41.16,0ZM6.2,7.75C1,7.75.14,12.41,0,15.5a1.55,1.55,0,0,0,1.55,1.55H51.14a1.55,1.55,0,0,0,1.55-1.55c-.14-3.09-1-7.75-6.2-7.75ZM3.49,20.14l5.77,45a3.76,3.76,0,0,0,3.71,3H39.72a3.77,3.77,0,0,0,3.72-3.07l1.79-14,4-31Zm22.71,6.2a.32.32,0,0,1,.1,0c4.48,0,8.25,3.14,10,7.75h8L42.9,44.94H36.25a13.4,13.4,0,0,1-1.37,2.85,10.2,10.2,0,0,1-8.39,4.9h-.11A10.2,10.2,0,0,1,18,48a13.69,13.69,0,0,1-1.51-3H9.79L8.4,34.09h8C18.06,29.53,21.75,26.39,26.2,26.34Zm.07,6.2c-2.57,0-4.62,3.17-4.58,7s2.16,6.95,4.73,6.93,4.63-3.17,4.58-7S28.84,32.51,26.27,32.54Z"/></g></g></g></svg>