<svg xmlns="http://www.w3.org/2000/svg" viewBox="0 0 75.9 75.93"><defs><style>.cls-1{fill:#8c5656;}</style></defs><title>icon-coffee</title><g id="Layer_2" data-name="Layer 2"><g id="Layer_6" data-name="Layer 6"><g id="surface1"><path class="cls-1" d="M54.48,0C35.07,0,32.39,18,25.23,25.42S0,38.15,0,55c0,3.9,1.79,8,6.29,12.4,2.38,2.3,5.66,3.39,9.54,3.39,10,0,23.79-7.21,35.65-19.52C68,34.18,74.45,13.69,66,5.47,61.93,1.58,58.11,0,54.48,0Zm4.84,10.94h1c-5.84,3.39-13.25,9.38-15.21,14.58-1.44,3.84-2.13,9-6.29,13.27-3.91,4.06-10,6.07-13.66,7.84A25.17,25.17,0,0,0,12.45,61.89,19.89,19.89,0,0,1,23.34,42.81c3.26-1.63,8.55-3.93,11.62-7.12s4.29-7.51,5.57-11C44.23,14.44,53.84,11.19,59.32,10.94ZM72.73,15.2c.2,10.89-6.64,25.4-19,38.26C42.07,65.52,28.33,73.21,17.34,73.85a35.21,35.21,0,0,0,12,2.08c11.6,0,23-5.22,32.2-14.72C75.54,46.69,79.37,29.44,72.73,15.2Z"/></g></g></g></svg>