<svg xmlns="http://www.w3.org/2000/svg" viewBox="0 0 1199.5 98"><defs><style>.cls-1,.cls-2{fill:#f2e0d5;}.cls-1,.cls-3,.cls-4,.cls-5,.cls-6,.cls-7{stroke:#3f4659;}.cls-1{stroke-miterlimit:10;}.cls-3,.cls-4,.cls-5,.cls-6,.cls-7{fill:none;stroke-linecap:round;stroke-linejoin:round;stroke-width:3px;}.cls-4{stroke-dasharray:0 5.05;}.cls-5{stroke-dasharray:0 5;}.cls-6{stroke-dasharray:0 5.05;}.cls-7{stroke-dasharray:0 4.99;}</style></defs><title>Navbar</title><g id="Layer_2" data-name="Layer 2"><g id="Layer_4" data-name="Layer 4"><path class="cls-1" d="M33.67,29.33a10.14,10.14,0,0,0,5-3.2c.63-.77,1.3-1.52,2-2.23a34.82,34.82,0,0,1,2.67-2.48A33.67,33.67,0,0,1,65.09,13.5H543.78a10.66,10.66,0,0,1,5.11-5.43L561.34,2A10.65,10.65,0,0,0,563.6.5H65.09A46.36,46.36,0,0,0,30.65,15.9,10.15,10.15,0,0,1,25.05,19C11.08,21.71.5,34.34.5,49.5c0,15.42,10.94,28.21,25.26,30.6a10.81,10.81,0,0,1,6,3.17l0,0A46.33,46.33,0,0,0,65.09,97.5H558.25l-9.36-4.57a10.6,10.6,0,0,1-5.35-6,11.32,11.32,0,0,1-.48-2l-.06-.4H65.09a33.7,33.7,0,0,1-21-7.3,34.72,34.72,0,0,1-4.38-4.11,11,11,0,0,0-5.45-3.24,21.17,21.17,0,0,1-.64-40.52ZM1174.46,19a10.16,10.16,0,0,1-5.61-3.14c-.37-.4-.74-.8-1.12-1.19A46.33,46.33,0,0,0,1134.41.5H634.09A10.91,10.91,0,0,0,636.35,2l12.46,6.08a10.66,10.66,0,0,1,5.11,5.43h480.49a33.67,33.67,0,0,1,21.71,7.92A34.4,34.4,0,0,1,1160.7,26a10.46,10.46,0,0,0,5.13,3.3,21.17,21.17,0,0,1-.64,40.52,11.11,11.11,0,0,0-5.52,3.32c-.29.32-.58.63-.88.93a35.94,35.94,0,0,1-3.43,3.1,33.7,33.7,0,0,1-20.95,7.3H654.7l-.06.4a11.32,11.32,0,0,1-.48,2,10.6,10.6,0,0,1-5.35,6l-9.37,4.57h495a46.34,46.34,0,0,0,33.5-14.39,10.39,10.39,0,0,1,5.82-3c14.32-2.38,25.27-15.17,25.27-30.6C1199,34.34,1188.42,21.72,1174.46,19Z"/><path class="cls-2" d="M60.09,8H538.78a13.55,13.55,0,0,0-.72,3l-1.94,15.84a13.5,13.5,0,0,1-1.13,4L528.49,45a14,14,0,0,0,0,11.48L535,70.6a13.5,13.5,0,0,1,1.13,4L538,90H60.09a31,31,0,0,1-21-8.43,37.43,37.43,0,0,1-4.38-4.75,10.8,10.8,0,0,0-5.45-3.74C20.48,70.42,14,60.91,14,49.58c0-11.06,6.22-20.38,14.72-23.3a10.12,10.12,0,0,0,5-3.69c.63-.89,1.3-1.76,2-2.58a38.1,38.1,0,0,1,2.67-2.86A31.11,31.11,0,0,1,60.09,8Z"/><line class="cls-3" x1="538.78" y1="8" x2="538.78" y2="8"/><path class="cls-4" d="M537.82,13l-1.7,13.89a13.5,13.5,0,0,1-1.13,4L528.49,45a14,14,0,0,0,0,11.48L535,70.6a13.5,13.5,0,0,1,1.13,4l1.57,12.86"/><line class="cls-3" x1="538" y1="90" x2="538" y2="90"/><path class="cls-5" d="M533,90H60.09a31,31,0,0,1-21-8.43,37.43,37.43,0,0,1-4.38-4.75,10.8,10.8,0,0,0-5.45-3.74C20.48,70.42,14,60.91,14,49.58c0-11.06,6.22-20.38,14.72-23.3a10.12,10.12,0,0,0,5-3.69c.63-.89,1.3-1.76,2-2.58a38.1,38.1,0,0,1,2.67-2.86A31.11,31.11,0,0,1,60.09,8H536.28"/><path class="cls-1" d="M65.09,13.5H543.78a10.44,10.44,0,0,0-.72,2.6l-1.94,13.71A10.51,10.51,0,0,1,540,33.3l-6.5,12.23a10.66,10.66,0,0,0,0,9.94L540,67.7a10.51,10.51,0,0,1,1.13,3.49L543,84.5H65.09a33.7,33.7,0,0,1-21-7.3,34.72,34.72,0,0,1-4.38-4.11,11,11,0,0,0-5.45-3.24,21.17,21.17,0,0,1-.64-40.52,10.14,10.14,0,0,0,5-3.2c.63-.77,1.3-1.52,2-2.23a34.82,34.82,0,0,1,2.67-2.48A33.67,33.67,0,0,1,65.09,13.5Z"/><path class="cls-2" d="M1186.55,49.58c0,11.33-6.53,20.84-15.36,23.5a11,11,0,0,0-5.52,3.83c-.29.37-.58.73-.88,1.08a38.78,38.78,0,0,1-3.43,3.58A31,31,0,0,1,1140.41,90H660.7l1.88-15.37a13.48,13.48,0,0,1,1.12-4l6.51-14.13a14.09,14.09,0,0,0,0-11.48L663.7,30.87a13.48,13.48,0,0,1-1.12-4L660.64,11a13.55,13.55,0,0,0-.72-3h480.49a31.11,31.11,0,0,1,21.71,9.15,37.28,37.28,0,0,1,4.58,5.32,10.43,10.43,0,0,0,5.13,3.81C1180.33,29.2,1186.55,38.52,1186.55,49.58Z"/><line class="cls-3" x1="660.7" y1="90" x2="660.7" y2="90"/><path class="cls-6" d="M661.31,85l1.27-10.36a13.48,13.48,0,0,1,1.12-4l6.51-14.13a14.09,14.09,0,0,0,0-11.48L663.7,30.87a13.48,13.48,0,0,1-1.12-4L660.64,11c0-.19,0-.37-.08-.56"/><line class="cls-3" x1="659.92" y1="8" x2="659.92" y2="8"/><path class="cls-7" d="M664.91,8h475.5a31.11,31.11,0,0,1,21.71,9.15,37.28,37.28,0,0,1,4.58,5.32,10.43,10.43,0,0,0,5.13,3.81c8.5,2.92,14.72,12.24,14.72,23.3,0,11.33-6.53,20.84-15.36,23.5a11,11,0,0,0-5.52,3.83c-.29.37-.58.73-.88,1.08a38.78,38.78,0,0,1-3.43,3.58A31,31,0,0,1,1140.41,90H663.2"/><path class="cls-1" d="M1180.55,49.5a20.89,20.89,0,0,1-15.36,20.35,11.11,11.11,0,0,0-5.52,3.32c-.29.32-.58.63-.88.93a35.94,35.94,0,0,1-3.43,3.1,33.7,33.7,0,0,1-20.95,7.3H654.7l1.88-13.31a10.49,10.49,0,0,1,1.12-3.49l6.51-12.23a10.71,10.71,0,0,0,0-9.94L657.7,33.3a10.49,10.49,0,0,1-1.12-3.49L654.64,16.1a10.44,10.44,0,0,0-.72-2.6h480.49a33.67,33.67,0,0,1,21.71,7.92A34.4,34.4,0,0,1,1160.7,26a10.46,10.46,0,0,0,5.13,3.3A20.93,20.93,0,0,1,1180.55,49.5Z"/></g></g></svg>