<svg xmlns="http://www.w3.org/2000/svg" viewBox="0 0 48.39 48.39"><defs><style>.cls-1{fill:#8c5656;}</style></defs><title>social-FB</title><g id="Layer_2" data-name="Layer 2"><g id="Layer_6" data-name="Layer 6"><g id="surface1"><path class="cls-1" d="M42.63,0H5.76A5.76,5.76,0,0,0,0,5.76V42.63a5.76,5.76,0,0,0,5.76,5.76H42.63a5.76,5.76,0,0,0,5.76-5.76V5.76A5.76,5.76,0,0,0,42.63,0ZM38,17.28h-2.3c-2.47,0-3.46.58-3.46,2.31V23H38L36.87,28.8H32.26V46.09H26.5V28.8H21.89V23H26.5V19.59c0-4.61,2.3-8.07,6.91-8.07,3.34,0,4.61,1.15,4.61,1.15Z"/></g></g></g></svg>