<svg xmlns="http://www.w3.org/2000/svg" viewBox="0 0 48.39 44.93"><defs><style>.cls-1{fill:#8c5656;fill-rule:evenodd;}</style></defs><title>social-YT</title><g id="Layer_2" data-name="Layer 2"><g id="Layer_6" data-name="Layer 6"><g id="surface1"><path class="cls-1" d="M10.37,0l3.46,10.37v6.91h2.3V10.37L19.59,0H17.28L15,6.91,12.67,0ZM23,4.61a3.44,3.44,0,0,0-2.58.81c-.72.61-.92,1.07-.87,2.65v5.76a3.2,3.2,0,0,0,.88,2.57,3.29,3.29,0,0,0,2.57.88,3.25,3.25,0,0,0,2.6-.88,3.06,3.06,0,0,0,.86-2.57V8.07a3.42,3.42,0,0,0-.88-2.63A3.39,3.39,0,0,0,23,4.61Zm5.76,0V15a2.48,2.48,0,0,0,2.31,2.3,2.89,2.89,0,0,0,2.3-1.15v1.15h2.31V4.61H33.41v9.22c0,.78-.94,1.15-1.15,1.15a1.06,1.06,0,0,1-1.15-1.15V4.61ZM23,6.91c.35,0,1.16,0,1.16,1.16v5.76A1,1,0,0,1,23,15c-.34,0-1.15,0-1.15-1.15V8.07C21.89,7.12,22.39,6.91,23,6.91ZM6.91,19.59A6.52,6.52,0,0,0,0,26.5v11c0,4.16,2.77,7.48,6.91,7.48H41.48A6.52,6.52,0,0,0,48.39,38V26.5a6.52,6.52,0,0,0-6.91-6.91ZM9.22,24.2h6.91v2.3h-2.3V40.33H11.52V26.5H9.22Zm16.13,0h2.3v4.6a2.66,2.66,0,0,1,1-.92,2.44,2.44,0,0,1,1.12-.3,2.1,2.1,0,0,1,1.73.77,3.32,3.32,0,0,1,.72,2.18v6.92a2.68,2.68,0,0,1-.67,1.84,2.33,2.33,0,0,1-1.63,1,2.85,2.85,0,0,1-2.31-1.16v1.16h-2.3Zm-9.22,3.45h2.3v9.22A1.24,1.24,0,0,0,19.59,38c.93,0,.94-.88,1.15-1.15V27.65H23V40.33h-2.3V39.17a2.81,2.81,0,0,1-1.13.9,2.68,2.68,0,0,1-1.41.26,2.25,2.25,0,0,1-1.49-.89A2,2,0,0,1,16.13,38Zm21,0a3.11,3.11,0,0,1,2.44.85A3.18,3.18,0,0,1,40.33,31v3.59H35.72v1.78A2.32,2.32,0,0,0,36,37.64a1,1,0,0,0,.9.38,1.08,1.08,0,0,0,.92-.31A2.75,2.75,0,0,0,38,36.29v-.57h2.31v.68a3.79,3.79,0,0,1-.72,2.81,3.51,3.51,0,0,1-2.7.94,3.32,3.32,0,0,1-2.56-1,3.94,3.94,0,0,1-.93-2.76V31a3.38,3.38,0,0,1,1-2.51A3.82,3.82,0,0,1,37.1,27.65Zm-8.3,1.73a1.2,1.2,0,0,0-1.15,1.15v6.92c0,.33.52.57,1.15.57A1.13,1.13,0,0,0,30,36.9V31.11C30,30,29.44,29.38,28.8,29.38Zm8.07.58a1.16,1.16,0,0,0-1.15,1.15v1.15H38V31.11A1.11,1.11,0,0,0,36.87,30Z"/></g></g></g></svg>