<svg xmlns="http://www.w3.org/2000/svg" viewBox="0 0 53 53"><defs><style>.cls-1{fill:#8c5656;}</style></defs><title>social-whatsApp</title><g id="Layer_2" data-name="Layer 2"><g id="Layer_6" data-name="Layer 6"><g id="surface1"><path class="cls-1" d="M26.5,0A26.49,26.49,0,0,0,3.42,39.51L0,51.54a1.16,1.16,0,0,0,.28,1.11,1.18,1.18,0,0,0,.83.35,1.33,1.33,0,0,0,.28,0L14,49.86A26.5,26.5,0,1,0,26.5,0ZM39.83,35.85c-.57,1.57-3.28,3-4.59,3.19A9.51,9.51,0,0,1,31,38.78c-1-.31-2.25-.73-3.88-1.42-6.82-2.91-11.28-9.69-11.62-10.14s-2.78-3.64-2.78-6.95a7.47,7.47,0,0,1,2.39-5.6,2.46,2.46,0,0,1,1.81-.84c.45,0,.91,0,1.3,0s1-.16,1.53,1.16,1.94,4.64,2.1,5a1.22,1.22,0,0,1,.06,1.18,4.3,4.3,0,0,1-.68,1.12c-.34.39-.72.88-1,1.18s-.69.7-.3,1.37a20.26,20.26,0,0,0,3.79,4.65,18.66,18.66,0,0,0,5.47,3.34c.67.34,1.07.28,1.47-.17s1.7-2,2.15-2.64.91-.55,1.53-.33,4,1.85,4.65,2.18,1.14.51,1.31.79A5.52,5.52,0,0,1,39.83,35.85Z"/></g></g></g></svg>