<svg xmlns="http://www.w3.org/2000/svg" viewBox="0 0 53 53"><defs><style>.cls-1{fill:#8c5656;}</style></defs><title>social-twitter</title><g id="Layer_2" data-name="Layer 2"><g id="Layer_6" data-name="Layer 6"><g id="surface1"><path class="cls-1" d="M26.5,0A26.5,26.5,0,1,0,53,26.5,26.53,26.53,0,0,0,26.5,0Zm13,21.34c0,.28,0,.55,0,.83,0,8.43-6.43,18.16-18.16,18.16a18.07,18.07,0,0,1-9.79-2.87A12.88,12.88,0,0,0,21,34.82a6.39,6.39,0,0,1-6-4.44,6,6,0,0,0,1.2.12,6.67,6.67,0,0,0,1.68-.22A6.39,6.39,0,0,1,12.77,24v-.09a6.45,6.45,0,0,0,2.89.81,6.42,6.42,0,0,1-2-8.53,18.11,18.11,0,0,0,13.15,6.67,6.41,6.41,0,0,1,6.22-7.83,6.39,6.39,0,0,1,4.66,2,12.89,12.89,0,0,0,4.05-1.55A6.41,6.41,0,0,1,39,19a13,13,0,0,0,3.67-1A13,13,0,0,1,39.45,21.34Z"/></g></g></g></svg>