<svg xmlns="http://www.w3.org/2000/svg" viewBox="0 0 53 49.89"><defs><style>.cls-1{fill:#8c5656;}</style></defs><title>social-SP</title><g id="Layer_2" data-name="Layer 2"><g id="Layer_6" data-name="Layer 6"><g id="surface1"><path class="cls-1" d="M51.58,36.55c-6.68-1.1-9.74-8-9.84-8.25a.94.94,0,0,0-.06-.15,1.87,1.87,0,0,1-.24-1.38c.3-.7,1.69-1.14,2.52-1.4.29-.1.57-.18.79-.27,2-.8,3-1.85,3-3.11a2.7,2.7,0,0,0-2-2.37,3.41,3.41,0,0,0-1.32-.25,3,3,0,0,0-1.25.25,5.53,5.53,0,0,1-1.93.58,2,2,0,0,1-.27,0l0-.79c.23-3.58.51-8-.7-10.76A14.42,14.42,0,0,0,27,0H26A14.38,14.38,0,0,0,12.63,8.62c-1.21,2.72-.93,7.18-.71,10.76v.14c0,.22,0,.44,0,.65a4.75,4.75,0,0,1-2.48-.55c-1.38-.64-3.86.21-4.2,2-.16.8,0,2.31,3,3.47.22.09.5.17.79.27.83.26,2.22.7,2.52,1.4a2,2,0,0,1-.27,1.46c-.13.3-3.17,7.22-9.87,8.32A1.7,1.7,0,0,0,0,38.32,2.18,2.18,0,0,0,.17,39C.78,40.43,3,41.42,7.11,42.09c.07.24.15.6.2.8.08.41.18.82.3,1.25A1.82,1.82,0,0,0,9.46,45.5a7,7,0,0,0,1.29-.17A12.4,12.4,0,0,1,13.39,45a12,12,0,0,1,1.87.16A9.19,9.19,0,0,1,18.72,47c1.92,1.36,4.09,2.9,7.46,2.9h.64c3.37,0,5.55-1.54,7.47-2.9a9.15,9.15,0,0,1,3.45-1.81A12.24,12.24,0,0,1,39.62,45a12.88,12.88,0,0,1,2.64.29,7.2,7.2,0,0,0,1.34.15,1.78,1.78,0,0,0,1.79-1.34c.13-.42.22-.83.31-1.24,0-.16.12-.54.2-.8,4.12-.67,6.33-1.65,6.93-3.06a2.17,2.17,0,0,0,.17-.71A1.69,1.69,0,0,0,51.58,36.55Z"/></g></g></g></svg>