<svg xmlns="http://www.w3.org/2000/svg" viewBox="0 0 416.77 210.42"><defs><style>.cls-1,.cls-11,.cls-2,.cls-3,.cls-5,.cls-6{fill:#f2e0d5;}.cls-2{font-size:29.77px;letter-spacing:0.05em;}.cls-11,.cls-2,.cls-3,.cls-5,.cls-6{font-family:Heubeul:-Pratama-Yudha., Heubeul;}.cls-3{font-size:31.86px;letter-spacing:-0.01em;}.cls-4{letter-spacing:-0.03em;}.cls-5{font-size:20.88px;letter-spacing:0.2em;}.cls-6{font-size:18.18px;letter-spacing:0.3em;}.cls-7{letter-spacing:0.29em;}.cls-8{letter-spacing:0.3em;}.cls-9{letter-spacing:0.28em;}.cls-10{letter-spacing:0.3em;}.cls-11{font-size:101.16px;}.cls-12{letter-spacing:-0.05em;}</style></defs><title>type-CraftEsspresso</title><g id="Layer_2" data-name="Layer 2"><g id="Layer_4" data-name="Layer 4"><path class="cls-1" d="M77.65,157a2.16,2.16,0,0,0-.24.48.61.61,0,0,1-.39.38,4,4,0,0,1-.48.08L76,158l-.63.11a3.5,3.5,0,0,1-.62.06H73.07a5.38,5.38,0,0,0-.76.06c-.59,0-1.17,0-1.75,0l-1.8-.09H67.57a5.69,5.69,0,0,1-1.18-.12,1.48,1.48,0,0,0-1.07.17.92.92,0,0,1-.69-.06.83.83,0,0,0-.69-.06,2.68,2.68,0,0,1-.86.08q-.37,0-.84,0a.06.06,0,0,0-.06,0s0,0-.06,0c-1,0-1.92,0-2.85,0s-1.88,0-2.85,0h-.06l-1.57,0q-1.22,0-2.88,0l-3.55,0c-1.26,0-39.14.56-40.25.55H5.23a11.29,11.29,0,0,0-1.58,0c-.31,0-.69.06-1.12.08a6,6,0,0,1-1.21-.06,2.43,2.43,0,0,1-1-.35.78.78,0,0,1-.33-.83,1.18,1.18,0,0,1,.43-.84,2,2,0,0,1,.83-.34,4.6,4.6,0,0,1,1-.05l.93,0v.06h1l2.33,0c.92,0,38.61-.62,39.68-.62s2.06,0,3,0,1.69,0,2.31,0h1a.06.06,0,0,0,.06-.06.07.07,0,0,1,.07,0,6,6,0,0,1,2,.09,6.41,6.41,0,0,0,2,.09c.75-.07,1.47-.11,2.17-.11h2.15q.53,0,1,0a6.14,6.14,0,0,0,1.05,0,3.18,3.18,0,0,0,.72-.17,1.19,1.19,0,0,1,.7,0,6.43,6.43,0,0,0,.73.18,2.8,2.8,0,0,0,.82,0,1.85,1.85,0,0,0,.5-.06,2.41,2.41,0,0,1,.5,0h2.89l1.77,0,1,0h.64a4.29,4.29,0,0,0,.65,0,1.07,1.07,0,0,1,.31-.12.6.6,0,0,1,.32,0l.26,0a1.87,1.87,0,0,0,.58,0,2.73,2.73,0,0,1,.57,0l.52.09a1.33,1.33,0,0,1,.45.15l.32.17a1.45,1.45,0,0,1,.32.29c.07,0,.09.08.07.14a.23.23,0,0,0,0,.2A.78.78,0,0,1,77.65,157Zm-77,.25.05.06H.74l.06-.06,0-.11H.59a.05.05,0,0,1-.06-.06s0,0-.05,0l-.08.11H.46v0s0,.06.1.18h0ZM4.4,123.1a3.12,3.12,0,0,0,.23-.49.6.6,0,0,1,.4-.37l.47-.09.48-.08.68-.09a5.82,5.82,0,0,0,.62-.08,3.71,3.71,0,0,1,.47,0,1.27,1.27,0,0,0,.47,0H9a7.25,7.25,0,0,0,.77-.05,17,17,0,0,1,1.75,0c.58,0,37.86-.54,38.44-.5h1.22a6.44,6.44,0,0,1,1.21.12,4.05,4.05,0,0,0,.52,0,2.34,2.34,0,0,0,.55-.14.83.83,0,0,1,.66.06.88.88,0,0,0,.72.06,2.34,2.34,0,0,1,.82-.08c.27,0,.54,0,.82,0a.19.19,0,0,0,.12-.06c1,0,1.93,0,2.88,0s1.91,0,2.88,0H64c.82,0,1.78,0,2.88,0l3.52.06c1.24,0,2.41,0,3.52,0h2.88a12.56,12.56,0,0,0,1.58-.06c.31,0,.68-.06,1.11-.08a6.43,6.43,0,0,1,1.25.06,2.08,2.08,0,0,1,1,.38.86.86,0,0,1,.3.86,1.16,1.16,0,0,1-.43.84,1.74,1.74,0,0,1-.82.31,5.22,5.22,0,0,1-1,0l-.89,0v-.12H77.82c-.62,0-1.39,0-2.3,0l-3,0-3,.05c-.92,0-1.7,0-2.34,0h-1s0,0,0,.06,0,0,0,0a6.12,6.12,0,0,1-2-.09,6.64,6.64,0,0,0-2-.09,20.64,20.64,0,0,1-2.2.11H57.82c-.35,0-.69,0-1,0a6.14,6.14,0,0,0-1.05,0A5.11,5.11,0,0,0,55,124a1.6,1.6,0,0,1-.7,0,5.93,5.93,0,0,0-.76-.18,3,3,0,0,0-.85,0,2,2,0,0,0-.47.06,2.89,2.89,0,0,1-.53,0H48.87c-.64,0-37.94.59-38.5.57l-1.08,0H8.68a3.18,3.18,0,0,0-.62.06,1.05,1.05,0,0,1-.36.11.39.39,0,0,1-.26,0,1.58,1.58,0,0,0-.32,0,1.71,1.71,0,0,0-.55,0,1.71,1.71,0,0,1-.55,0l-.51-.09a2.31,2.31,0,0,1-.51-.14.3.3,0,0,0-.13-.09.34.34,0,0,1-.14-.09c-.18-.07-.29-.17-.31-.28s-.1-.16-.07-.35A.66.66,0,0,1,4.4,123.1Zm1,.52c0,.11,0,.11.17,0a.15.15,0,0,0,0-.12l.07,0H5.52s0,0-.13,0l.05.06s0,0-.05,0H5.33S5.38,123.58,5.38,123.62Zm1-.23h.17l0-.17s0,0,0,0a.08.08,0,0,1-.11,0c-.11-.12-.14-.17-.1-.17V123a.06.06,0,0,0-.06.06.07.07,0,0,1-.07.06v-.06s0,.06,0,.06l0,.06s0,.06-.09.06-.07,0,0,0a.22.22,0,0,0,.17.06Zm.11.46s0,0,.06,0a.08.08,0,0,1,.08.06s0,0,.09,0,.06,0,.07-.12.05,0,0-.05,0-.08,0-.12l-.13.12s-.07,0-.09,0,0,0-.09,0ZM7.9,123l-.06.06H8S8,123,8.14,123s0,0,0,0,0,0,0,0a.85.85,0,0,0,.37-.17.5.5,0,0,0,.14-.17l-.13.05a.09.09,0,0,1-.08-.05.08.08,0,0,0-.08-.06H8.35a.06.06,0,0,0-.06,0s0,0-.06,0a.24.24,0,0,0-.19.12s0,.06-.14.17l-.05-.06Zm.56.17c0,.08,0,.12.11.12v-.11l.12-.06a.17.17,0,0,1-.11-.06l-.06.06s0,0,0-.06,0,.06,0,.06,0,0,0,0v0Zm1,.3q-.08,0-.06,0v.11h.11l-.05-.06.12-.05-.11-.06ZM52,123.05s0,0,0,0,0,0,0,0a.23.23,0,0,0,0-.17l-.13.06h-.29s0,.05,0,.05,0,0,0,.06v.06h.18a.06.06,0,0,0,.06-.06l0,.12A.28.28,0,0,0,52,123.05Zm1.88-.63v.06a.05.05,0,0,0,.06.06h.11s0,.07,0,.08,0,0,0,0v-.06s0,0,0,0,0,0,0,0,.06,0,.06,0,0,0,.07-.08v0c-.08,0-.12,0-.14,0s-.06-.06-.14-.06A.12.12,0,0,0,53.92,122.42Zm1.19-.17,0,0a.08.08,0,0,0-.12,0v0l0,.12q-.18,0-.18.06s0,0,.05,0,.07,0,.11,0v-.06s.07,0,.09,0,0,0,.09,0l0-.12Zm-1.78,34.11v-.12h-.11v-.06l0-.05-.06.05v.06h.06s0,.06,0,.06,0,0,0,.06v0ZM55.72,122s.07,0,.11,0H56V122h-.12s0-.07,0-.09,0,0,0,0l-.08.12v.11s-.06,0-.05,0v0Zm.7.46-.05-.06h.11c0-.08,0-.12-.1-.12v0l-.07.12s0,.06,0,.06Zm-17.12,0v-.06s0,0-.05,0h-.12a.09.09,0,0,0,0-.09s0,0,0,0v.06s0,0,0,0,0,0,0,0-.07,0-.06,0,0,0-.07.09v-.06c.07,0,.12,0,.13.06s.06.06.14.06A.12.12,0,0,0,39.3,122.51Zm-1.18.17.05.06s.07,0,.11,0v-.06l0-.11q.16,0,.18-.06s0-.06,0-.06-.07,0-.12,0v0l0,.11s-.07,0-.09,0,0,0-.09,0v.11Zm7.3-.09v0s0-.06,0-.06h-.12a.13.13,0,0,0,0-.09s0,0,0,0v.06s-.05,0,0,0,0,0,0,0-.06,0-.06,0,0,0-.07.09v-.06c.07,0,.12,0,.13.06s.07.06.14.06A.12.12,0,0,0,45.42,122.59Zm-1.18.17,0,.06s.07,0,.12,0v-.06l0-.11c.11,0,.18,0,.18-.06s0-.06,0-.06-.07,0-.12,0v.06c-.05,0-.08,0-.1,0s0,0-.09,0v.11Zm28-.34v-.06s0-.06,0-.06h-.11a.11.11,0,0,0,0-.08s0,0,0,0v0s0,0,0,0,0,0,0,0-.06,0-.06,0,0,0-.07.09v-.06c.08,0,.12,0,.14.06s.06,0,.14,0A.12.12,0,0,0,72.28,122.42Zm-1.19.17,0,.06a.09.09,0,0,0,.12,0v-.06l0-.12c.12,0,.18,0,.18,0s0-.06-.05-.06-.07,0-.11,0v.06s-.07,0-.09,0,0,0-.09,0l0,.12Zm-33.58.32a.14.14,0,0,1-.11-.06h-.12V123h.11s0,.06,0,.08,0,0,0,0l.07-.11v-.12a.05.05,0,0,1,.06.06l0,.11Zm-.7-.46,0,.06h-.12a.09.09,0,0,0,.1.11v0l.08-.11a.05.05,0,0,0-.06-.06Zm-21,1.17v.06a.05.05,0,0,0,.07,0l.11,0a.1.1,0,0,0,0,.07s0,0,0,0v-.06s0,0,0,0,0,0,0,0,0-.07,0,0,0,0,0-.1v0q-.11,0-.15,0s-.08,0-.15,0A.12.12,0,0,0,15.82,123.62Zm1.05-.59-.07,0a.08.08,0,0,0-.11,0v.06l.08.09c-.1,0-.15.08-.14.12a0,0,0,0,0,.06,0,.07.07,0,0,0,.11,0l0,.06,0-.12s.05-.07.07-.06.05,0,.08-.05l0-.12Zm.48-.43a.16.16,0,0,1,.13,0l.11-.05,0-.11-.11,0c-.05,0-.05,0,0-.08s0,0,0,0l0,.13,0,.12a.05.05,0,0,1-.07,0l0-.11Zm.82.18-.07,0,.06,0,.05,0a.09.09,0,0,0-.13-.07v0l0,.14s0,0,.07,0Zm4.21,0a.19.19,0,0,1,.12,0l.11,0,0-.12-.11,0s0,0,0-.09,0,0,0,0l0,.14,0,.11s-.05,0-.06,0l0-.11Zm.81.18-.06,0,.05,0,.06,0a.09.09,0,0,0-.14-.07v0l0,.13s0,.05.07,0Zm7.23-.54s0,.07-.07.1l0,.12.11,0,0-.11s.07,0,.08,0,0,0,0,0l-.1-.09-.11,0a0,0,0,0,1,.06,0l.11,0Zm-.57.61.06,0v.12c.08,0,.12,0,.13-.08L30,123l.05,0-.1-.1a0,0,0,0,0-.06,0Zm-17.69-.31a.16.16,0,0,1,0,.12l.08.08.09-.07-.08-.08c0-.06,0-.07.06-.06s.05,0,0,0l-.14,0-.08.07s0,0,0-.08l.09-.07Zm.19.82v-.08l.05,0,0,0a.08.08,0,0,0,0-.15l0,0,0,0-.13,0s0,0,0,.08Zm41.53,33.5a.09.09,0,0,0,.1.11s.06,0,.07,0,0,0,.06,0a.19.19,0,0,0,.07-.12l.07-.06s.06,0,0,0a.05.05,0,0,1-.06.06s0-.06-.05-.06h-.12A.78.78,0,0,1,53.88,157.05Zm.93,0h0l-.06.06A.05.05,0,0,0,54.81,157.05Zm3.71-34.61s0,0,.11,0l0,.06s0,.06,0,.06l.07-.06v-.06l-.05-.11c-.07,0-.12,0-.14,0s0,0-.08,0v-.06Zm.1.17.05.06,0,0s0,0,0,.06l.07-.06a.17.17,0,0,0,.12,0h-.06l-.05-.06h-.17Zm.32.23s.05,0,.05,0,0,0,.06,0h.05l0-.12.12,0h.06s0-.06,0-.06h-.18s0,0,0,0,0,0,0,0,.06,0,0,.06a.16.16,0,0,1-.12,0,.05.05,0,0,0-.06.06.13.13,0,0,0,0,.09S58.93,122.88,58.94,122.84Zm-1.62,34.62c.08,0,.12,0,.11.12v-.12a.13.13,0,0,1,.07-.09.11.11,0,0,0,.07-.08.14.14,0,0,1-.11-.06c0-.08,0-.11,0-.11s0,0,0-.06l.07-.06c-.21.11-.32.19-.32.23A.19.19,0,0,0,57.32,157.46ZM60,121.81h-.12l0,.17H60l.11.11h0v0l.07-.06V122l0-.12s0-.06.06,0a.21.21,0,0,0-.17-.06Zm0,.92h.06l.06-.06-.06.06.07-.12H60l.05.06H60S60,122.73,60,122.73Zm.52.06v-.06l0-.17,0-.12s0-.06,0-.06a.13.13,0,0,1-.13-.11s-.06,0,0-.06a.05.05,0,0,0-.06-.06l-.06.06s0,.06,0,.06l.05,0,0,.18h.12a.1.1,0,0,1-.07.08s0,0,0,.09S60.4,122.78,60.52,122.79Zm-2.29,33.92s-.06,0-.06.06l0,.23c0,.08,0,.12.07.12a.2.2,0,0,1,.14,0s0,.06,0,.06,0,0,0,.06v.06a.06.06,0,0,0,.06-.06l0-.12a.23.23,0,0,0,0-.17h-.06s0-.06,0-.08a.09.09,0,0,0,.07-.09s-.06-.06-.08-.06S58.27,156.75,58.23,156.71Zm.4,1h.24l0-.17h-.18c-.1-.11-.13-.17-.09-.17a.07.07,0,0,0-.07.06l-.07.11v-.06l0,.12s0,.06-.06,0h-.06s0,.05.11.05h.11Zm.12-.92s0,0-.06,0h-.06l-.06.06.12-.06-.07.12h.12s0,0-.06,0,0,0,0-.06h.12S58.79,156.77,58.75,156.77ZM61.42,122s-.09,0-.16-.12V122a.13.13,0,0,1,0,.09.1.1,0,0,0,0,.08l0,.06.1.17-.07.06v-.06c.2-.07.31-.13.31-.17S61.53,122.12,61.42,122ZM59.7,156.6h-.11l0,.12s0,.06-.06.05h-.06s0,.06,0,.06h.17q.12,0,.06,0s-.06,0-.06,0l.07-.05a.17.17,0,0,0,.12-.06c0-.12,0-.13-.11-.06Zm.43.29-.05-.06-.11-.05v-.06a.07.07,0,0,1-.07.06.06.06,0,0,0-.06.05h.06s0,.06.05.06h.17Zm.1.18s0-.06-.11-.06-.06,0,0-.06l0-.06A.07.07,0,0,0,60,157V157l.05.11s.06,0,.08,0,.07,0,.14,0v.06Zm3.71-34.62h0l.06-.06A.05.05,0,0,0,63.94,122.45Zm.87,0c0-.07,0-.11,0-.11s-.11,0-.1,0,0,0,0,0a.19.19,0,0,0-.07.12s0,.06-.13.06v-.06c.12,0,.17,0,.17.06A.78.78,0,0,0,64.81,122.45ZM62.27,157l0,.06s0,0,0,0,0,.12.1.12h-.06a.05.05,0,0,1,.06-.06v.06l.07-.12s0-.06,0-.06Zm.65.41v-.06a.22.22,0,0,1-.13.06v.11h.12v.06l-.07.06a.12.12,0,0,0,.13-.12l0-.11v.05l.05.12a.05.05,0,0,1-.06-.06.07.07,0,0,1,.07-.06H63Zm2.5-34.28v.12h.11v.11s.06,0,.06-.05l.07-.06h-.06v-.06c0-.08,0-.11.07-.11v.11s-.06,0-.05-.06ZM24,157.53s0-.05,0,0,0,0,0,0a.18.18,0,0,0,0-.17l-.12,0h-.29s0,.06,0,.06,0,0,0,.06v.05h.17a.07.07,0,0,0,.07-.06l0,.11A.24.24,0,0,0,24,157.53Zm1.89-.63V157s0,0,.05,0h.12a.09.09,0,0,0,0,.09s0,0,0,0V157s.05,0,0,0,0,0,0,0,.07-.05.06,0,0,0,.07-.09v.06c-.08,0-.13,0-.14-.06a.15.15,0,0,0-.14-.06A.12.12,0,0,0,25.92,156.9Zm1.18-.17-.05-.06s-.07,0-.11,0v.06l0,.11q-.16,0-.18.06s0,.06.05.06.07,0,.12,0V157l0-.12s.07-.05.09,0,0,0,.09,0v-.11Zm-13.42.69v.06s0,.06.05.06h.12a.09.09,0,0,0,0,.08s0,0,0,0v-.06s0,0,0,0,0,0,0,0,.06,0,.06,0,0,0,.07-.08v0c-.08,0-.12,0-.13,0s-.07-.06-.14-.06A.12.12,0,0,0,13.68,157.42Zm1.18-.17,0-.06s-.07,0-.12,0v.05l0,.12q-.18,0-.18.06s0,0,0,0,.07,0,.12,0v-.06s.08,0,.09,0,0,0,.1,0v-.12ZM4.19,156.8v.06s0,.06,0,.06h.11s0,.06,0,.08,0,0,0,0v-.05s0,0,0,0,0,0,0,0,.06-.05.06,0,0,0,.07-.09v.06c-.08,0-.12,0-.14-.06s-.06-.05-.14-.05A.12.12,0,0,0,4.19,156.8Zm1.19-.17,0-.06a.09.09,0,0,0-.12,0v.06l0,.12c-.12,0-.18,0-.18.05s0,.06,0,.06.07,0,.11,0v-.06s.07,0,.09,0,0,0,.09,0l0-.12ZM8,157.77v0s0,.06.05.06h.11a.2.2,0,0,0,0,.09s0,0,0,0v-.06s.05,0,0,0,0,0,0,0l.06,0s0,0,.07-.08v.06c-.08,0-.12,0-.14-.06s-.06-.06-.13-.06A.13.13,0,0,0,8,157.77Zm1.19-.17-.05-.06s-.07,0-.12,0v.06l0,.11q-.18,0-.18.06s0,.06.05.06.07,0,.12,0v-.06q.08-.06.09,0s.05,0,.09,0l0-.11Zm9.93-.41v.05s0,.06.05.06h.12s0,.07,0,.09,0,0,0,0v-.06s.05,0,0,0,0,0,0,0,.07,0,.07,0,0,0,.06-.09v.06c-.08,0-.13,0-.14-.06s-.06-.06-.14-.06A.12.12,0,0,0,19.15,157.19Zm1.19-.17-.06-.06s-.07,0-.11,0V157l.05.11c-.12,0-.18,0-.19.06s0,.06.05.06a.09.09,0,0,0,.12,0v.05l0-.11s.07-.05.09,0,.05,0,.09,0V157ZM44,156.77v.06s0,.06,0,.06h.11s0,.07,0,.09,0,0,0,0v-.06s0,0,0,0,0,0,0,0,.06,0,.06,0,0,0,.07-.08v.06c-.08,0-.12,0-.14-.06s-.06-.06-.14-.06A.12.12,0,0,0,44,156.77Zm1.19-.16,0-.06a.08.08,0,0,0-.12,0v.06l0,.11q-.18,0-.18.06s0,.06.05.06a.08.08,0,0,0,.11,0v-.06s.07-.05.09,0,0,0,.09,0l0-.11Zm-17.43-.11a.14.14,0,0,1,.11.06h.12l0-.11h-.12s0-.06,0-.08,0,0,0,0l-.07.11v.12a.05.05,0,0,1-.06-.06l0-.11Zm.7.46-.05-.05h.12c0-.08,0-.12-.1-.12v0l-.08.12s0,.05.06.05Zm2.11-.05s0,.06.11.06l.05.06s0,.05.05.05l.06-.05V157l0-.12c-.08,0-.12,0-.14,0a.09.09,0,0,1-.09,0v-.06Zm.09.17.05.06.05.06s0,0,0,.06l.06-.06a.22.22,0,0,0,.13-.06h-.06l-.05-.06h-.18Zm.32.24s.06,0,.06,0,0,0,.05,0h.06v-.11l.13-.06h.06s0-.06-.05-.06h-.18s-.05,0,0,0,0,0,0,0,.06,0,.05,0a.19.19,0,0,1-.12.06.07.07,0,0,0-.07.06s0,.07,0,.08S30.93,157.35,30.93,157.32Zm1.06-1h-.11l0,.17H32l.1.11h.06v-.06l.06,0v0l0-.11a.07.07,0,0,1,.07-.06.22.22,0,0,0-.17-.06Zm0,.92h.06l.07,0-.07,0,.08-.11H32l.05,0h-.12A0,0,0,0,0,32,157.2Zm.52.06v-.06l0-.17v-.11c.05,0,0-.06,0-.06s-.1,0-.13-.12,0,0,0-.05,0-.06-.05-.06l-.07.06s0,.05.06.05l.05.06,0,.17h.12a.11.11,0,0,1-.07.09s0,.05,0,.09S32.4,157.26,32.51,157.26Zm.91-.74s-.09,0-.16-.12v.12a.15.15,0,0,1,0,.08.1.1,0,0,0,0,.09l0,.06.09.17-.06.06v-.06c.21-.08.31-.13.32-.17S33.53,156.59,33.42,156.52Zm2.51.41h0l.07-.06A.07.07,0,0,0,35.93,156.93Zm.87,0c0-.08,0-.12,0-.12s-.11,0-.09,0,0,0,0,0a.23.23,0,0,0-.08.11s0,.06-.12.06V157c.11,0,.17,0,.17.06A.7.7,0,0,0,36.8,156.93Zm.62.69,0,.12h.12l0,.12a.07.07,0,0,0,.07-.06l.06,0h-.05v0c0-.08,0-.12.08-.12l0,.12s0,0,0-.06Zm26.1-.37s.06,0,.06,0,.06,0,.06,0,0,0,0,0h.12v-.05l-.06-.06v-.06h.06A.12.12,0,0,0,64,157h-.23l.06-.06s0,0-.07.11,0,.05-.06,0-.06,0-.06,0A.21.21,0,0,0,63.52,157.25Zm1.31-.23s0,0,0,0,0,0-.06,0h0l0-.06-.07.06V157s-.06,0-.06,0,0,0-.07.08v0c.08,0,.11,0,.11.06s0,.05.11.05.1,0,.19-.11Zm1.88-.57s0,.05-.06,0-.06,0-.06,0a.22.22,0,0,1,0,.17l.07-.06.06-.06.18,0,.17,0,0-.17h-.18v.06s-.06,0,0-.06v-.06A.24.24,0,0,0,66.71,156.45Zm5.85.24s.06,0,.07-.05h.06v-.12h-.06s0,0-.06,0-.06,0,0,0l.1.06-.12.06Zm1,.24h.06l0-.06s-.06,0,0-.06l0,.12-.12,0s0,.06,0,.06a.27.27,0,0,0,.13,0v-.06a.07.07,0,0,1,.07-.06l0,.12v-.06Zm.62.17.07-.06h-.12a.1.1,0,0,1-.12,0s-.06,0-.06,0-.06,0-.06,0,0,0,0,0a.46.46,0,0,1-.18.06s-.1,0-.19.11a.07.07,0,0,0-.07.06v.12l.12-.06.1.12s.06,0,.07,0,0,0,.06,0,0,0,.06,0a.37.37,0,0,0,.24-.12.21.21,0,0,0,.08-.17.12.12,0,0,1,.09,0s0,0,0,0l0-.06Zm1.39-.86h-.12l-.1-.05s-.06,0-.07,0,0,0-.06,0l0,.23v-.06s.06,0,.06,0,0,0,.06,0,.08,0,.09,0,0,0,.1-.06Zm.12.46s0,0-.06,0h-.12l0,.18s0,0,.06,0a.12.12,0,0,1,.11,0c0,.08,0,.12.1.12l.07-.06v-.06s0,0,0,.06l-.05-.11a.07.07,0,0,1,.07-.06s0,0,0-.06S75.76,156.7,75.65,156.7Zm1-.22s0-.06-.08-.06-.09,0-.1.05a.16.16,0,0,0,.05.12l-.07.06h0l.07-.06h0s0,0,0-.06,0,0,.06,0Zm4.69-33.64v-.06h0l-.07.06s0,.08,0,.12h.23s.06,0,.05.05.06,0,.07-.11h0l.06-.06s0,0,0,0,0,0,0,0v-.06s0-.06,0-.06,0,0,0,0h-.12Z"/><path class="cls-1" d="M402.78,108.74a2.16,2.16,0,0,0-.24.48.61.61,0,0,1-.4.38l-.47.08a4,4,0,0,0-.48.09l-.68.08-.61,0H399a7.07,7.07,0,0,1-.76.05,5.27,5.27,0,0,0-.76.06H396c-.64,0-39.2.37-39.94.36s-1.44,0-2.09,0l-1.4,0h-1.22a5.54,5.54,0,0,1-1.15-.12,5.12,5.12,0,0,0-.56,0,1.94,1.94,0,0,0-.51.14.87.87,0,0,1-.69,0,.83.83,0,0,0-.69-.06,3,3,0,0,1-.86.08q-.37,0-.84,0s-.06,0-.06,0,0,0-.06,0l-2.85,0c-.93,0-1.88,0-2.86,0h-.05l-1.57,0-2.88,0c-1.11,0-2.29,0-3.55,0l-3.55,0h-2.88a11.37,11.37,0,0,0-1.58,0,10.65,10.65,0,0,1-1.11.08,6,6,0,0,1-1.22-.06,2.26,2.26,0,0,1-1-.37.85.85,0,0,1-.33-.87,1.14,1.14,0,0,1,.43-.83,1.64,1.64,0,0,1,.82-.31,5.22,5.22,0,0,1,1,0l.89,0a.05.05,0,0,1,.06.06h1c.64,0,1.42,0,2.34,0s1.9,0,3,0l3,0,2.31,0h1s.07,0,.07-.06a.07.07,0,0,1,.07-.06,6.64,6.64,0,0,1,2,.09,6.41,6.41,0,0,0,2,.1,18,18,0,0,1,2.17-.11h2.15q.52,0,1.05,0a6.14,6.14,0,0,0,1,0,3.82,3.82,0,0,0,.72-.17,1,1,0,0,1,.7,0,6.26,6.26,0,0,0,.73.17,2.8,2.8,0,0,0,.82,0,1.54,1.54,0,0,0,.5-.05,1.85,1.85,0,0,1,.5-.06h4.6c1.09,0,40-.36,40.87-.33l1.6,0h.61a4.21,4.21,0,0,0,.62-.05.92.92,0,0,1,.36-.12.41.41,0,0,1,.27,0,1.48,1.48,0,0,0,.31,0,1.73,1.73,0,0,0,.55,0,2.06,2.06,0,0,1,.55,0l.51.09a1.2,1.2,0,0,1,.45.15l.33.17a1.1,1.1,0,0,1,.32.23.52.52,0,0,1,.07.4A.78.78,0,0,1,402.78,108.74Zm-81.63,0,.05.06h.06l.07-.06v-.11h-.23s-.06,0-.06,0,0,0-.05,0l-.07.12H321v0s0,0,.1.17h.06Zm3.77-34.15a1.77,1.77,0,0,0,.21-.49.53.53,0,0,1,.36-.37l.54-.09a2.72,2.72,0,0,0,.47-.08l.63-.11a3.74,3.74,0,0,1,.68-.06h1.69a5.27,5.27,0,0,0,.76-.05,17.08,17.08,0,0,1,1.75,0l1.73.1H335a6.44,6.44,0,0,1,1.21.12,4.05,4.05,0,0,0,.52,0,3,3,0,0,0,.55-.14.6.6,0,0,1,.66,0,.88.88,0,0,0,.72.09,2.32,2.32,0,0,1,.82-.09q.41,0,.81,0s.06,0,.07,0,0,0,.06,0q1.46,0,2.88,0c1,0,1.91,0,2.88,0H348l3.52,0,4.36.07c1.55,0,3,0,4.37,0s40.4-.36,41.39-.35a15.92,15.92,0,0,0,1.84-.06c.28,0,.63-.06,1.06-.08a6.33,6.33,0,0,1,1.24.06,2.56,2.56,0,0,1,1,.35.78.78,0,0,1,.33.83,1.15,1.15,0,0,1-.43.87,2.3,2.3,0,0,1-.82.31,3.67,3.67,0,0,1-1,0l-.93,0,0-.11-1.32,0c-.8,0-39.65.4-40.82.42s-2.43,0-3.79,0-2.62,0-3.78,0l-3,0-1.28,0L350,76a6.71,6.71,0,0,1-2-.09,6.06,6.06,0,0,0-2-.09,20.59,20.59,0,0,1-2.2.1h-2.13l-1.07,0a6.78,6.78,0,0,0-1,0,5,5,0,0,0-.72.15,1.79,1.79,0,0,1-.7,0,5.89,5.89,0,0,0-.8-.14q-.34,0-.81,0a1.51,1.51,0,0,0-.47,0,2.2,2.2,0,0,1-.53.06h-2.86q-.93,0-1.77,0l-1.07,0h-.61a3.11,3.11,0,0,0-.62.06.94.94,0,0,1-.37.11h-.58a1.87,1.87,0,0,0-.58,0,1.89,1.89,0,0,1-.58,0A3.58,3.58,0,0,0,326,76a2,2,0,0,1-.51-.14l-.13-.09a.39.39,0,0,0-.14-.08c-.18-.08-.29-.18-.31-.29s-.1-.16-.07-.35A.75.75,0,0,1,324.92,74.6Zm1,.52q0,.18.18,0l-.06-.06a0,0,0,0,1,0,0l.13-.06h0q0,.22-.18.06l.05,0s0,0-.06,0h-.06Zm1-.23h.17l0-.17s0,0-.06,0a.08.08,0,0,1-.11,0l-.1-.11h-.06v0a.06.06,0,0,1-.06.06V74.6l0,.12a.07.07,0,0,1-.07.06s0,0,0,0a.18.18,0,0,0,.16.06Zm.12.46s0,0,.06,0a.07.07,0,0,1,.07.06s.05,0,.09,0a.07.07,0,0,0,.07-.06.09.09,0,0,0,0-.11.11.11,0,0,1,.05-.12v.06s-.06,0-.06,0,0,0-.07,0-.07.05-.09,0-.05,0-.09,0Zm1.39-.86-.07.06h.12s0,0,.06,0a.1.1,0,0,0,.12,0l0,.06a.75.75,0,0,0,.37-.17c.08,0,.12-.06.14-.17l-.12.06s-.07,0-.08-.06a.1.1,0,0,0-.09-.06h-.05s-.06,0-.06,0,0,0-.07,0a.22.22,0,0,0-.19.11s0,.06-.13.17l-.05,0A0,0,0,0,1,328.43,74.49Zm.55.24.11,0v-.11l.07-.06s0-.06-.05-.06l-.07.06s0,0,0-.06,0,.06,0,.06,0,0,0,.06Zm1,.17-.07.06v.11H330l-.05,0,.13-.06Zm5.85.25a.17.17,0,0,1,.12-.06.09.09,0,0,0,0-.09.11.11,0,0,1,0-.08l-.07,0a.06.06,0,0,1-.06.06h-.24s0,0,0-.06a.13.13,0,0,1,0,.09.19.19,0,0,0,0,.09h.18a0,0,0,0,0,.06,0l.05.11h.05Zm1.95-.69,0,.12s0,0,.17,0,0,.1.05.06v-.06s0,0,0,0,.18-.08.19-.12v.06h-.06c-.08,0-.11,0-.11-.06s0-.06-.11-.06A.17.17,0,0,0,337.75,74.46Zm1.18-.11-.05-.06a.07.07,0,0,0-.12,0v.06l.05.11c-.12,0-.18,0-.19.12h.06s.07,0,.11,0v.06l0-.12s.07,0,.09,0,.05,0,.09,0l0-.11Zm-1.78,34.1v-.11H337v-.06l-.05-.06-.06.06a.07.07,0,0,1-.07.06H337l-.08.17v-.06Zm2.39-34.33a.15.15,0,0,1,.11.06h.11l0-.12h-.18c0-.07,0-.11.08-.11a.07.07,0,0,0-.07.06l0,.17s-.06,0,0-.06v0Zm.7.46s-.06,0-.05-.11h.12l-.11-.06v0l-.07.12s0,0,.05,0Zm18.78.09,0,.12s.05,0,.17,0,0,.1.05.06v-.06s0,0,0,0c.12,0,.19-.08.19-.12v.06h-.06c-.08,0-.12,0-.11-.06s0-.06-.11-.06A.17.17,0,0,0,359,74.67Zm1.17-.11-.05-.06s-.07,0-.11,0v.06l0,.11c-.11,0-.18,0-.19.12h.06a.08.08,0,0,0,.12,0v.06l0-.12s.07,0,.09,0,0,0,.09,0v-.11Zm.62-.23a.14.14,0,0,1,.1.06H361l0-.12h-.18c0-.07,0-.11.07-.11s-.06,0-.06,0l0,.18s-.06,0-.05-.06v0Zm.69.46s-.05,0,0-.11h.12l-.11-.06v0l-.07.12s0,.05.05.05ZM381,73.93l0-.12s-.07,0-.18,0,0-.09-.06,0v0s0,0,0,.06c-.11.07-.16.13-.15.16V74l.05,0c.08,0,.12,0,.13,0s0,.05.12,0A.27.27,0,0,0,381,73.93Zm-1.1.45.07,0a.08.08,0,0,0,.11,0v-.06l-.08-.09c.12,0,.16-.09.15-.17l-.05,0c-.05,0-.08,0-.12,0v.06s-.05.07-.07,0-.05,0-.08.06l0,.11Zm-.52.39a.19.19,0,0,1-.12,0l-.11,0,0,.11.17,0c0,.08,0,.12,0,.14a.07.07,0,0,0,.05-.08l0-.17s.06,0,.06,0l0,.12Zm-.8-.24s.06,0,.08.1l-.06,0h-.06l.13,0v0l0-.13a0,0,0,0,0-.06,0Zm16.41,0,0-.11s0-.07-.15-.09,0-.1,0-.07l0,.06s0,0,0,0-.19,0-.21.08l0-.06h.06c.08,0,.11,0,.1.08s0,.07.09.08A.16.16,0,0,0,395,74.52Zm-1.17-.13,0,.07c0,.05.06.05.11,0l0-.06,0-.12c.11,0,.18,0,.21-.08h-.06s-.06,0-.12,0l0-.06,0,.11c-.05,0-.08,0-.1,0s0,0-.09,0l0,.11Zm-.65.11a.17.17,0,0,1-.09-.08l-.12,0,0,.11.17,0c0,.07-.06.11-.1.1a.06.06,0,0,0,.08,0l0-.17s.05,0,0,.07l0,.11Zm-.59-.59s0,0,0,.12h-.06l-.06,0,.1.08,0,0,0,0,.09-.1s0,0,0-.06Zm-23.49.88,0-.11s0-.07-.15-.09,0-.09,0-.06l0,0s0,0,0,0c-.13,0-.2,0-.21.08l0-.06.06,0c.07,0,.11,0,.09.07s0,.07.1.08A.17.17,0,0,0,369.05,74.79Zm-1.18-.12,0,.06a.08.08,0,0,0,.12,0l0-.06,0-.12c.12,0,.19,0,.21-.07l-.05,0a.08.08,0,0,0-.12,0l0,0,0,.11c-.05,0-.08,0-.09,0s-.05,0-.1,0l0,.12Zm-.64.1a.15.15,0,0,1-.1-.08l-.11,0,0,.11.17,0c0,.08,0,.11-.09.1s.06,0,.08,0l.05-.17s.05,0,0,.07l0,.11Zm-.59-.59s0,0,0,.12h-.12l.1.08,0-.06,0,.06.09-.1s0-.06,0-.07Zm20.55.38,0-.11s0-.07-.15-.09,0-.1,0-.07l0,.06s0,0,0,.05c-.13,0-.2,0-.21.08l0-.06.06,0c.07,0,.1,0,.09.07s0,.07.1.08A.17.17,0,0,0,387.19,74.56ZM386,74.44l0,.06a.08.08,0,0,0,.12,0v-.06l0-.12c.12,0,.19,0,.21-.07h-.05a.08.08,0,0,0-.12,0l0,0,0,.11c-.05,0-.08,0-.09,0s0,0-.1,0l0,.11Zm-.64.1a.15.15,0,0,1-.1-.08l-.11,0,0,.11.17,0c0,.08-.05.11-.09.1a.05.05,0,0,0,.07,0l.06-.17s.05,0,0,.07l0,.11Zm-.6-.59s.05,0,0,.12h-.11l.1.07v0l.09-.09s0-.06,0-.07Zm-26.44,35.21,0-.11s0-.07-.15-.09,0-.1,0-.07l0,.06s-.05,0,0,0c-.13,0-.2,0-.21.08l0-.06H358c.07,0,.11,0,.09.08s0,.06.1.08A.17.17,0,0,0,358.33,109.16Zm-1.18-.13,0,.07c0,.05.07.05.12,0l0-.05,0-.12c.12,0,.19,0,.21-.08h-.05a.08.08,0,0,0-.12,0l0-.06,0,.11c-.05,0-.08,0-.09,0s-.05,0-.1,0l0,.11Zm-.64.11a.19.19,0,0,1-.1-.08l-.11,0,0,.11.17,0c0,.07-.05.11-.09.1s.06,0,.08,0l.05-.17s0,0,0,.07l0,.11Zm-.59-.59s0,0,0,.12h-.12l.1.07,0,0,0,0,.09-.1s0-.05,0-.06Zm-24.57.52,0-.1s0-.07-.15-.09,0-.1,0-.07l0,0s0,0,0,.06c-.13,0-.2,0-.21.07l0,0h0c.08,0,.11,0,.1.08s0,.06.09.08A.27.27,0,0,0,331.35,109.07Zm-1.18-.12,0,.07s.06,0,.11,0l0-.05,0-.13c.11,0,.18,0,.21-.07h-.06s-.06,0-.11,0l0,0,0,.11s-.08,0-.1,0,0,0-.09,0l0,.11Zm-.65.1s-.06,0-.09-.07l-.12,0,0,.11.17,0c0,.07-.06.1-.09.1a.06.06,0,0,0,.07,0l.06-.16s.05,0,0,.06l0,.11Zm-.59-.59s.05.05,0,.12h-.11l.09.08,0-.06,0,.06.1-.1s0-.06,0-.07Zm38.88.63v.11s.05.06.16,0,0,.1.06.06v-.06s0,0,0-.06q.18-.06.18-.12v.06h-.06c-.08,0-.11,0-.11,0s0-.06-.11,0A.17.17,0,0,0,367.81,109.09Zm1.17-.16-.05-.05a.08.08,0,0,0-.12,0v.06l.05.11c-.11,0-.18,0-.18.12h.06s.07,0,.11,0v-.06s.07,0,.09,0,.05,0,.09,0v-.12Zm3.78-.12a.14.14,0,0,1,.11,0H373v-.12h-.18c0-.08,0-.12.07-.12a.05.05,0,0,0-.06.06l0,.17s-.06,0-.05,0v0Zm.71.43s-.05,0-.05-.11h.12l-.11-.06v0l-.07.12s0,.06.05.06Zm-10.3-.62s0,.06-.09.09l0,.11.1.05.06-.17c.07,0,.1.07.08.11a.05.05,0,0,0,0-.08l-.16-.08a0,0,0,0,1,.07,0l.11,0Zm-.65.52s.05,0,.12,0l0,0,0,.06.09-.09-.05,0,.05,0-.09-.1s-.05,0-.07,0Zm22.88-.84s0,.06-.09.09l0,.11.11,0,.05-.16c.07,0,.1.07.09.1a.06.06,0,0,0,0-.08l-.15-.07s0,0,.07,0l.1,0Zm-.66.52s.05,0,.12,0v.05l0,0,.09-.08-.06,0,.06,0-.09-.1s-.06,0-.07,0Zm11.78-.48a.13.13,0,0,1-.09.09l0,.11.1,0,.06-.17c.07,0,.1.07.08.11a.05.05,0,0,0,0-.08l-.16-.08a.05.05,0,0,1,.07,0l.11,0Zm-.65.53s.05,0,.12,0l0,.06,0,0,.09-.09-.05,0,.05,0-.08-.1s-.06,0-.07,0Zm-6.16-.43,0,.1s0,.08.14.11c0,.07,0,.1,0,.07l0,0s0,0,0,0,.2,0,.21-.05l0,.06-.06,0c-.07,0-.1-.06-.08-.09s0-.07-.09-.09A.15.15,0,0,0,389.71,108.44Zm1.15.28,0-.07a.07.07,0,0,0-.11,0l0,0v.12c-.11,0-.18,0-.22,0l.06,0c0,.05,0,.06.11,0l0,0,.05-.1c.05,0,.09,0,.1,0s0,0,.09,0l.05-.1Zm.65,0s.06,0,.09.09l.11,0,.05-.11-.17,0c0-.07.07-.1.11-.09s-.07,0-.08,0l-.08.16s-.05,0,0-.07l.05-.11Zm.51.66s0,0,0-.12l.05,0,.06,0-.09-.09,0,0,0,0-.1.08s0,.06,0,.07Zm-12.95-.31v.11s.05.06.17,0,0,.1,0,.06v-.06s0,0,0-.06c.12,0,.18-.08.19-.12v.06h-.06c-.07,0-.11,0-.11,0s0-.06-.11-.06A.19.19,0,0,0,379.07,109.05Zm1.17-.16-.05-.06s-.07,0-.12,0v.06l.05.11c-.12,0-.18,0-.19.12H380s.07,0,.12,0v-.06s.07,0,.09,0,.05,0,.09,0v-.11Zm.61-.25a.21.21,0,0,1,.11,0h.11v-.11h-.17c0-.08,0-.12.07-.12a.07.07,0,0,0-.07.06v.17s-.06,0,0,0v0Zm.71.44s-.05,0-.05-.12h.12l-.11-.06v0l-.07.12s0,.06.05.06Zm-43.86.06c0,.08,0,.12.1.12s.06,0,.06,0,0,0,.07,0a.23.23,0,0,0,.07-.11.06.06,0,0,1,.06-.06q.07-.06.06,0a.05.05,0,0,1-.06.06A.08.08,0,0,1,338,109s-.05,0-.09,0A.56.56,0,0,1,337.7,109.14Zm.93,0h0l-.06,0S338.63,109.19,338.63,109.15Zm3.71-34.62s0,.06.11.06,0,.06.05,0h.06l.06-.06,0-.12c-.07,0-.12,0-.14,0s-.05,0-.09,0v-.06Zm.1.17v.06h.06l.05.06s0,0,0,.06l.07-.06a.22.22,0,0,0,.12-.06h-.06l-.05-.06h-.17Zm.32.23s.05,0,.05,0,0,0,.05,0h.06l0-.11.12-.06h.06s0-.06-.05-.06h-.18a.17.17,0,0,1-.12.06.07.07,0,0,0-.07.06s0,.06,0,.08S342.75,75,342.76,74.93Zm-1.57,34.68s0,.06.05.06v-.11a.11.11,0,0,1,.07-.09s0,0,0-.09l0,0,0-.18.07-.05v.05q-.13.12-.21.09c-.06,0-.09,0-.1.09a.19.19,0,0,0,.14.23Zm2.63-35.71h-.12l0,.17h.17c0,.07,0,.11.11.11a.06.06,0,0,0,.06-.06s0-.06.07,0v0l0-.11a.05.05,0,0,1,.06-.06.21.21,0,0,0-.17-.06Zm.06.92.06-.06-.06.06.07-.11h-.06l-.05-.06v.11h-.12s0,.06.11.06Zm.4.06a.14.14,0,0,0,.09,0s0,0,0,0l0-.23v0s-.08,0-.21-.18v0l-.05-.06-.06.06s0,0,.05,0,.05,0,.05.06l0,.17h.11a.1.1,0,0,1-.06.09c-.05,0-.05,0,0,.09s0,0,.06,0Zm-2.23,33.93a.05.05,0,0,0-.06.06l0,.17,0,.11s0,.06.08.06a.18.18,0,0,1,.14.06s0,.06,0,.06,0,0,0,.06v0a.06.06,0,0,0,.06,0l0-.12a.22.22,0,0,0,0-.17h-.06s0-.07,0-.09.07-.05.07-.08-.06-.06-.08-.06S342.09,108.85,342.05,108.81Zm.4,1h.18l0-.17h-.12c-.07-.08-.12-.12-.16-.12l-.07.12v-.06l0,.11a.06.06,0,0,1-.06.06h-.06s0,.06.11.06h.11Zm.06-.92h-.06l-.06.06.12-.06-.07.11h.11s0,0-.05,0,0,0,0,0h.12s0-.06-.05-.06Zm2.73-34.73s-.06,0-.08-.06a.08.08,0,0,0-.08-.06v.12s0,.06,0,.08a.11.11,0,0,0-.07.09s0,0,0,0,0,0,0,0l.09.18-.06.06v-.06c.2-.08.3-.13.31-.17S345.32,74.17,345.24,74.14Zm-1.72,34.56h-.11l0,.11a.06.06,0,0,1-.06.06h-.06s0,.06.05.06h.17V109h.05s-.05,0-.05-.06l.07-.06a.17.17,0,0,0,.12-.06s0,0-.11,0Zm.37.29s0,0,0-.06l-.11-.06v-.06c0,.08-.07.12-.19.12h.12s0,.06,0,.06h.11Zm.16.17s0-.06-.11-.06a.08.08,0,0,1-.08-.06.09.09,0,0,0-.08-.05l0,.11.05.12s.06,0,.08,0,.05,0,.08,0,.06,0,.06,0Zm3.65-34.62h.05a.07.07,0,0,1,.07-.05A.21.21,0,0,0,347.7,74.54Zm.93,0c0-.08,0-.12-.1-.12s0,0,0,0,0,0,0,0a.2.2,0,0,0-.07.11s-.06,0-.06,0,0,0-.07,0V74.6a.08.08,0,0,1,.08.06s0,0,.09,0A1.06,1.06,0,0,0,348.63,74.55Zm-2.54,34.56.05.06s0,0-.06,0H346s0,0,.05,0l.05.06a.05.05,0,0,1,.06-.06v.06l.07-.11s0-.06-.05-.06Zm.65.4v-.05a.27.27,0,0,1-.13.05v.12h.11v.05l-.07.06a.27.27,0,0,0,.13,0l0-.18v.06l0,.12s-.05,0-.05-.06a.07.07,0,0,1,.07-.06h-.06Zm2.5-34.27a.2.2,0,0,0-.07.11h.17v.12a.05.05,0,0,0,.06-.06c0-.11.06-.13.13-.06h-.12l0-.17v.06Zm-1.9,34.1s.06,0,.06,0,0,.06.11.06h.12v-.06l-.05,0s-.05,0-.05-.06q.24,0,.24-.06s0-.06,0-.06h-.17s0-.06.06,0,0,0-.07.11,0,0-.06,0-.06,0-.06,0A.19.19,0,0,0,347.34,109.34Zm1.25-.17s.06,0,.06,0,0,0,0,0,0,0-.06,0h-.05a.2.2,0,0,0,0-.09s0,0,0,0l-.06.06v0s-.06,0-.06,0,0,0-.07.09-.06,0-.06,0a.07.07,0,0,1,.07-.06c.08,0,.11,0,.11.06s0,.06.11.06A.12.12,0,0,0,348.59,109.17Zm1.94-.62s0,0-.06,0-.06,0-.06,0a.25.25,0,0,1,0,.18l.07-.06.06-.06.18,0,.17,0,0-.17h-.18v0s-.06,0-.06,0,0-.06-.05-.06Zm47.22-.17s0,0,.06,0l0-.12h-.12l.05.06-.12.06.11.05Zm1,.29c0-.08,0-.12-.1-.12l0,.12-.12,0a.15.15,0,0,1,.11.06l.06-.06s0,0,0,.06v-.11s0-.06.07-.06Zm.56.17.06-.06-.12.06H399s-.05,0,0,0,0,0,0,0a.48.48,0,0,1-.21.06.39.39,0,0,0-.21.11s-.07,0-.07.06v.12l.12-.06s.06,0,.08.06,0,.05.08.05h.06s.06,0,.06,0,0,0,.06,0a.22.22,0,0,0,.19-.12s.07-.06.07-.08,0-.05.07-.09l.05.06a.14.14,0,0,0-.11-.06Zm1.33-.86s-.07,0-.08,0a.12.12,0,0,0-.09,0l-.13.12v.11s.06,0,.06,0,0,0,.06,0,.07,0,.09,0,.05,0,.09,0l.07-.12Zm.17.46h-.17l0,.17s0,0,.05,0a.11.11,0,0,1,.12,0q0,.18.09.18v-.06l.06-.06v-.06s.05,0,0,0,0,0,0,0l-.05-.06s-.06,0-.05,0,0-.06.09-.06.07,0,0-.06a.21.21,0,0,0-.17-.06Zm1-.23c0-.11,0-.11-.17,0a.15.15,0,0,0,0,.12l-.06.06s0,0,0,0,.05-.06.13-.06l0-.06s0,0,.06,0h0Zm4.75-33.63-.05-.06q-.12,0-.12.06l0,.12h.24a.06.06,0,0,1,.05.06l.13-.11h-.12l.07-.06v.06s0-.06-.09-.17h-.06Z"/><text class="cls-2" transform="matrix(1, 0, -0.12, 0.92, 1.32, 148.09)">premium</text><text class="cls-3" transform="matrix(1, 0, -0.12, 0.92, 321.33, 101.27)">roas<tspan class="cls-4" x="43.46" y="0">t</tspan><tspan x="54.26" y="0">ers</tspan></text><text class="cls-5" transform="matrix(1.02, -0.04, -0.17, 0.91, 155.6, 205.93)">est.1986</text><text class="cls-6" transform="matrix(1.02, -0.01, -0.2, 0.91, 128.44, 16.3)">original <tspan class="cls-7" x="99.59" y="0">t</tspan><tspan class="cls-8" x="111.5" y="0">as</tspan><tspan class="cls-9" x="134.93" y="0">t</tspan><tspan class="cls-10" x="146.64" y="0">e</tspan></text><text class="cls-11" transform="matrix(1.02, 0, -0.16, 0.99, 27.71, 90.97)">Cra<tspan class="cls-12" x="155.08" y="0">f</tspan><tspan x="185.23" y="0">t</tspan></text><text class="cls-11" transform="matrix(1.02, 0, -0.16, 0.99, 82.2, 182.73)">Espresso</text></g></g></svg>